<?xml version="1.0" encoding="utf-8"?>
<!-- Generator: Adobe Illustrator 16.0.0, SVG Export Plug-In . SVG Version: 6.00 Build 0)  -->
<!DOCTYPE svg PUBLIC "-//W3C//DTD SVG 1.1//EN" "http://www.w3.org/Graphics/SVG/1.1/DTD/svg11.dtd">
<svg version="1.1" id="Layer_1" xmlns="http://www.w3.org/2000/svg" xmlns:xlink="http://www.w3.org/1999/xlink" x="0px" y="0px"
	 width="131px" height="68px" viewBox="0 0 131 68" enable-background="new 0 0 131 68" xml:space="preserve">
<g>
	<path fill="#D72339" d="M19.079,53.681l-0.494,0.379c-0.272-0.354-0.6-0.624-0.981-0.807c-0.382-0.184-0.802-0.275-1.259-0.275
		c-0.5,0-0.962,0.12-1.388,0.36s-0.756,0.562-0.99,0.967c-0.234,0.404-0.351,0.859-0.351,1.364c0,0.764,0.262,1.401,0.786,1.913
		c0.524,0.511,1.185,0.766,1.982,0.766c0.877,0,1.611-0.343,2.202-1.03l0.494,0.375c-0.313,0.397-0.702,0.705-1.169,0.922
		c-0.467,0.217-0.989,0.326-1.565,0.326c-1.096,0-1.96-0.365-2.593-1.095c-0.531-0.616-0.796-1.36-0.796-2.231
		c0-0.917,0.321-1.688,0.964-2.315c0.643-0.625,1.449-0.938,2.417-0.938c0.585,0,1.113,0.115,1.584,0.347
		C18.392,52.938,18.777,53.263,19.079,53.681z"/>
	<path fill="#D72339" d="M24.333,52.518l2.921,6.265h-0.676l-0.985-2.062h-2.699l-0.976,2.062H21.22l2.96-6.265H24.333z
		 M24.254,53.849l-1.074,2.268h2.142L24.254,53.849z"/>
	<path fill="#D72339" d="M29.661,52.518h1.248c0.715,0,1.198,0.031,1.448,0.094c0.358,0.088,0.65,0.27,0.877,0.543
		c0.227,0.274,0.341,0.618,0.341,1.033c0,0.417-0.111,0.762-0.332,1.032c-0.222,0.271-0.527,0.454-0.916,0.548
		c-0.284,0.067-0.815,0.102-1.593,0.102h-0.447v2.913h-0.626V52.518z M30.287,53.131v2.125l1.06,0.013
		c0.429,0,0.743-0.038,0.941-0.116s0.355-0.204,0.468-0.379c0.114-0.174,0.17-0.368,0.17-0.584c0-0.21-0.057-0.401-0.17-0.576
		c-0.113-0.174-0.263-0.298-0.449-0.372c-0.186-0.073-0.49-0.11-0.914-0.11H30.287z"/>
	<path fill="#D72339" d="M36.176,52.518h0.626v6.265h-0.626V52.518z"/>
	<path fill="#D72339" d="M39.055,53.131v-0.613h3.432v0.613h-1.396v5.651h-0.639v-5.651H39.055z"/>
	<path fill="#D72339" d="M47.389,52.518l2.922,6.265h-0.676l-0.985-2.062H45.95l-0.976,2.062h-0.699l2.96-6.265H47.389z
		 M47.31,53.849l-1.073,2.268h2.142L47.31,53.849z"/>
	<path fill="#D72339" d="M52.721,52.518h0.626v5.66h2.41v0.604h-3.036V52.518z"/>
	<path fill="#D72339" d="M62.038,52.518h1.248c0.715,0,1.198,0.031,1.448,0.094c0.357,0.088,0.649,0.27,0.877,0.543
		c0.227,0.274,0.341,0.618,0.341,1.033c0,0.417-0.11,0.762-0.332,1.032c-0.222,0.271-0.527,0.454-0.916,0.548
		c-0.284,0.067-0.814,0.102-1.593,0.102h-0.447v2.913h-0.626V52.518z M62.664,53.131v2.125l1.061,0.013
		c0.429,0,0.742-0.038,0.941-0.116c0.198-0.078,0.354-0.204,0.469-0.379c0.113-0.174,0.17-0.368,0.17-0.584
		c0-0.21-0.057-0.401-0.17-0.576c-0.114-0.174-0.264-0.298-0.45-0.372c-0.186-0.073-0.49-0.11-0.913-0.11H62.664z"/>
	<path fill="#D72339" d="M71.203,52.518l2.921,6.265h-0.676l-0.985-2.062h-2.699l-0.976,2.062H68.09l2.96-6.265H71.203z
		 M71.123,53.849l-1.073,2.268h2.142L71.123,53.849z"/>
	<path fill="#D72339" d="M76.568,52.518h1.248c0.695,0,1.167,0.028,1.414,0.086c0.371,0.085,0.674,0.268,0.906,0.548
		c0.233,0.279,0.35,0.624,0.35,1.034c0,0.341-0.08,0.641-0.24,0.899c-0.161,0.259-0.39,0.454-0.688,0.586
		c-0.298,0.133-0.71,0.2-1.234,0.203l2.253,2.908h-0.775l-2.253-2.908h-0.354v2.908h-0.626V52.518z M77.194,53.131v2.13l1.079,0.008
		c0.418,0,0.728-0.039,0.928-0.119c0.2-0.079,0.357-0.206,0.47-0.381s0.168-0.37,0.168-0.586c0-0.21-0.057-0.4-0.171-0.572
		c-0.113-0.172-0.263-0.295-0.447-0.368c-0.185-0.074-0.492-0.111-0.922-0.111H77.194z"/>
	<path fill="#D72339" d="M82.646,53.131v-0.613h3.433v0.613h-1.397v5.651h-0.639v-5.651H82.646z"/>
	<path fill="#D72339" d="M88.424,58.782v-6.265h0.137l4.169,4.803v-4.803h0.617v6.265h-0.14l-4.136-4.743v4.743H88.424z"/>
	<path fill="#D72339" d="M96.315,52.518h3.59v0.613h-2.964v1.964h2.938v0.613h-2.938v2.461h2.938v0.613h-3.564V52.518z"/>
	<path fill="#D72339" d="M102.46,52.518h1.248c0.695,0,1.167,0.028,1.414,0.086c0.372,0.085,0.674,0.268,0.907,0.548
		c0.232,0.279,0.349,0.624,0.349,1.034c0,0.341-0.08,0.641-0.24,0.899c-0.161,0.259-0.39,0.454-0.688,0.586
		c-0.298,0.133-0.709,0.2-1.234,0.203l2.253,2.908h-0.774l-2.253-2.908h-0.354v2.908h-0.626V52.518z M103.086,53.131v2.13
		l1.079,0.008c0.418,0,0.728-0.039,0.928-0.119c0.201-0.079,0.357-0.206,0.47-0.381s0.168-0.37,0.168-0.586
		c0-0.21-0.057-0.4-0.17-0.572c-0.114-0.172-0.264-0.295-0.448-0.368c-0.185-0.074-0.492-0.111-0.921-0.111H103.086z"/>
	<path fill="#D72339" d="M108.512,57.615l0.532-0.319c0.375,0.69,0.808,1.035,1.299,1.035c0.21,0,0.407-0.049,0.592-0.146
		c0.185-0.099,0.325-0.229,0.422-0.395s0.145-0.339,0.145-0.523c0-0.21-0.07-0.416-0.213-0.618
		c-0.196-0.277-0.554-0.613-1.073-1.005c-0.522-0.395-0.848-0.68-0.975-0.855c-0.222-0.296-0.333-0.615-0.333-0.959
		c0-0.272,0.065-0.521,0.196-0.745c0.131-0.224,0.314-0.4,0.552-0.53c0.236-0.129,0.494-0.193,0.772-0.193
		c0.296,0,0.571,0.073,0.828,0.219c0.258,0.146,0.529,0.416,0.816,0.808l-0.512,0.388c-0.235-0.313-0.437-0.519-0.603-0.618
		c-0.166-0.099-0.347-0.148-0.543-0.148c-0.253,0-0.459,0.076-0.619,0.229c-0.161,0.153-0.241,0.343-0.241,0.566
		c0,0.137,0.028,0.269,0.086,0.396c0.057,0.128,0.16,0.267,0.311,0.417c0.082,0.08,0.352,0.288,0.809,0.626
		c0.543,0.4,0.914,0.757,1.116,1.069c0.201,0.313,0.303,0.626,0.303,0.941c0,0.454-0.173,0.849-0.518,1.184
		s-0.765,0.503-1.259,0.503c-0.381,0-0.726-0.102-1.035-0.305C109.059,58.433,108.772,58.093,108.512,57.615z"/>
</g>
<g>
	<path fill="#D72339" d="M60.938,50.062h-3.193l-5.793-6.479l-5.794,6.479h-3.207l7.527-8.048l-6.776-7.224h3.179l5.042,5.632
		l5.086-5.632h3.164l-6.762,7.224L60.938,50.062z"/>
	<path fill="#D72339" d="M69.142,50.062h-2.587V34.791h2.587V50.062z"/>
	<path fill="#D72339" d="M92.847,50.062h-2.933l-2.269-4.639h-8.191l-2.153,4.639h-2.73l7.499-15.271h2.802L92.847,50.062z
		 M86.895,43.797l-3.453-7.065l-3.279,7.065H86.895z"/>
	<path fill="#D72339" d="M111.35,50.062H96.994V34.791h2.586v13.454h11.77V50.062z"/>
</g>
<path fill="#D72339" d="M29.505,28h-3.908L13.646,50h3.413l2.971-5h14.775l2.891,5h3.908L29.505,28z M21.556,42l5.862-11.403
	L33.44,42H21.556z"/>
<linearGradient id="SVGID_1_" gradientUnits="userSpaceOnUse" x1="13.1655" y1="31.6396" x2="119.4832" y2="32.9245">
	<stop  offset="0.1842" style="stop-color:#1EC2F2"/>
	<stop  offset="0.7638" style="stop-color:#009DE0"/>
</linearGradient>
<path fill="url(#SVGID_1_)" d="M12,35.72c15.418-15.417,32.568-21.173,50.631-23.142c37.309-4.065,71.508,14.135,51.993,40.647
	c12.581-20.503-8.173-36.078-35.278-38.383C55.922,12.85,27.411,20.086,12,35.72z"/>
<g>
	<linearGradient id="SVGID_2_" gradientUnits="userSpaceOnUse" x1="108.7783" y1="41.6226" x2="108.7783" y2="45.5701">
		<stop  offset="0" style="stop-color:#23C2F3"/>
		<stop  offset="1" style="stop-color:#0099DC"/>
	</linearGradient>
	<path fill="url(#SVGID_2_)" d="M109.154,46.182h-0.713v-4.328h-1.565v-0.502h3.483l0.321,0.281l-0.321,0.221h-1.205V46.182z"/>
	<linearGradient id="SVGID_3_" gradientUnits="userSpaceOnUse" x1="113.5" y1="41.6226" x2="113.5" y2="45.5706">
		<stop  offset="0" style="stop-color:#23C2F3"/>
		<stop  offset="1" style="stop-color:#0099DC"/>
	</linearGradient>
	<path fill="url(#SVGID_3_)" d="M115.072,41.663c-0.207,0.562-1.2,3.319-1.39,3.835c-0.188-0.516-1.376-3.274-1.582-3.835
		c-0.361-0.562-1.101-0.246-1.101-0.246v4.771c0,0,0.479,0.01,0.548,0c0.097-0.013,0.452-0.039,0.452-0.296c0-0.958,0-3.439,0-3.439
		l0.062-0.004l1.268,3.377l0.345,0.363l0.351-0.363l1.077-3.377L115,42.452c0,0,0,2.481,0,3.439c0,0.258,0.355,0.283,0.451,0.296
		c0.07,0.01,0.549,0,0.549,0v-4.771C116,41.417,115.434,41.101,115.072,41.663z"/>
</g>
</svg>
